<?xml version="1.0" encoding="utf-8"?>
<!-- Generator: Adobe Illustrator 22.0.1, SVG Export Plug-In . SVG Version: 6.00 Build 0)  -->
<svg version="1.1" xmlns="http://www.w3.org/2000/svg" xmlns:xlink="http://www.w3.org/1999/xlink" x="0px" y="0px"
	 viewBox="0 0 800 600" style="enable-background:new 0 0 800 600;" xml:space="preserve">
<style type="text/css">
	.st0{fill:#FFFFFF;stroke:#231F20;stroke-miterlimit:10;}
	.st1{fill:#EFEFEF;}
	.st2{fill:#F9F9F9;}
	.st3{fill:#F4F4F4;}
</style>
<g id="Background">
	<rect class="st0" width="800" height="600"/>
</g>
<g id="Polygons">
	<g id="XMLID_1_">
		<g>
			<polygon class="st1" points="-9,151.2 132.8,172.2 62.1,314.4 -9,151.4 			"/>
			<polygon class="st2" points="108.2,572.9 -9,472.4 -9,465.2 143.3,485.9 143.3,486 143.2,485.9 108.2,571.4 108.5,572.1 			"/>
			<polygon class="st2" points="810,-9 810,44 702.3,-9 			"/>
			<polygon class="st1" points="108.2,17.7 79.9,-9 111.6,-9 			"/>
			<polygon class="st1" points="331.6,33.3 293.5,-9 310,-9 			"/>
			<polygon class="st1" points="16.4,401.4 -9,364 -9,283.5 62.1,314.4 			"/>
			<polygon class="st2" points="108.2,17.7 136.7,-9 203.8,-9 197.8,17.7 			"/>
			<polygon class="st2" points="36.3,-9 54.8,86.5 -9,48.3 -9,-9 			"/>
			<polygon class="st1" points="731.2,73.4 690.5,-9 702.3,-9 810,44 810,50.7 			"/>
			<polygon class="st1" points="16.4,401.4 -9,446.1 -9,409.1 			"/>
			<polygon class="st1" points="411.4,27.1 421.4,-9 429.7,-9 472,69.4 			"/>
			<polygon class="st2" points="331.6,33.3 406.2,-9 421.4,-9 411.4,27.1 			"/>
			<polygon class="st3" points="132.8,172.2 -9,151.2 -9,151.1 54.8,86.5 			"/>
			<polygon class="st3" points="472,68.5 498.3,-8.8 606.8,54.1 			"/>
			<polygon class="st2" points="606.8,54.1 498.3,-8.8 649.7,37.1 			"/>
			<polygon class="st3" points="649.7,37.1 681.5,-9 690.5,-9 731.2,73.4 			"/>
			<polygon class="st1" points="108.5,572.1 126.5,607.5 16.4,607.5 108.2,572.9 			"/>
			<polygon class="st3" points="340.9,585.2 291.8,607.5 246.3,607.5 			"/>
			<polygon class="st1" points="638.3,493 810,456.7 810,460.2 710.3,554.7 			"/>
			<polygon class="st2" points="208.4,607.5 295.2,532.4 340.9,585.2 246.3,607.5 			"/>
			<polygon class="st3" points="687.7,361.6 809.3,344 638.3,493 			"/>
			<polygon class="st1" points="710.3,554.7 774.8,607.5 686.5,607.5 			"/>
			<polygon class="st3" points="731.2,73.4 810,219 810,222.9 715.7,188.7 			"/>
			<polygon class="st1" points="563.6,560.1 582.3,602.8 474,497.9 			"/>
			<polygon class="st3" points="791.4,607.5 810,486.4 810,607.5 			"/>
			<polygon class="st3" points="143.3,486.1 189.5,607.5 172.3,607.5 108.7,571.7 			"/>
			<polygon class="st1" points="340.9,585.2 479.4,607.5 291.8,607.5 			"/>
			<polygon class="st3" points="582.3,602.8 563.6,560.1 601,378.6 			"/>
			<polygon class="st1" points="687.7,361.6 810,226.7 810,317.7 809.3,344 			"/>
			<polygon class="st2" points="715.7,188.7 810,222.9 810,224.9 648.4,289.1 			"/>
			<polygon class="st2" points="582.3,602.8 638.3,493 710.3,554.7 			"/>
			<polygon class="st2" points="474,497.9 481.8,607.5 481.3,607.5 390,538 			"/>
			<polygon class="st2" points="649.7,37.1 715.7,188.7 581.2,142.6 			"/>
			<polygon class="st3" points="715.7,188.7 648.4,289.1 618.3,210.5 			"/>
			<polygon class="st3" points="648.4,289.1 687.7,361.6 601,378.6 			"/>
			<polygon class="st2" points="687.7,361.6 638.3,493 601,378.6 			"/>
			<polygon class="st1" points="648.4,289.1 601,378.6 549.9,332.8 			"/>
			<polygon class="st2" points="581.2,142.6 618.3,210.5 505.7,258.8 			"/>
			<polygon class="st3" points="618.3,210.5 549.9,332.8 505.7,258.8 			"/>
			<polygon class="st1" points="606.8,54.1 581.2,142.6 478.4,181.7 			"/>
			<polygon class="st2" points="549.9,332.8 563.6,560.1 530.2,448 			"/>
			<polygon class="st3" points="549.9,332.8 530.2,448 474,497.9 			"/>
			<polygon class="st2" points="549.9,332.8 474,497.9 413.8,405.2 			"/>
			<polygon class="st1" points="549.9,332.8 413.8,405.2 413.8,312.6 			"/>
			<polygon class="st1" points="478.4,181.7 505.7,258.8 378.4,213.9 			"/>
			<polygon class="st2" points="505.7,258.8 413.8,312.6 382.1,280.8 			"/>
			<polygon class="st3" points="505.7,258.8 382.1,280.8 378.4,213.9 			"/>
			<polygon class="st2" points="472,69.4 478.4,181.7 386,156.1 472,69.4 			"/>
			<polygon class="st3" points="474,497.9 323,476.2 371.9,454.3 			"/>
			<polygon class="st2" points="413.8,312.6 413.8,405.2 343.1,326.5 			"/>
			<polygon class="st1" points="382.1,280.8 413.8,312.6 312.6,289.1 			"/>
			<polygon class="st1" points="343.1,326.5 413.8,405.2 371.9,454.3 			"/>
			<polygon class="st3" points="411.4,27.1 386,156.1 295.2,123.2 			"/>
			<polygon class="st1" points="390,538 340.9,585.2 295.2,532.4 			"/>
			<polygon class="st3" points="390,538 295.2,532.4 323,476.2 			"/>
			<polygon class="st1" points="386,156.1 378.4,213.9 281,192 			"/>
			<polygon class="st2" points="378.4,213.9 382.1,280.8 281,192 			"/>
			<polygon class="st2" points="382.1,280.8 312.6,289.1 223.2,242.3 			"/>
			<polygon class="st3" points="382.1,280.8 223.2,242.3 281,192 			"/>
			<polygon class="st2" points="371.9,454.3 203.5,393.3 184.9,294.3 			"/>
			<polygon class="st3" points="312.6,289.1 343.1,326.5 184.9,294.3 			"/>
			<polygon class="st2" points="331.6,33.3 295.2,123.2 197.8,17.7 			"/>
			<polygon class="st1" points="323,476.2 295.2,532.4 143.3,486 143.3,485.9 			"/>
			<polygon class="st3" points="323,476.2 143.3,485.9 203.5,393.3 			"/>
			<polygon class="st1" points="295.2,123.2 281,192 197.8,110.3 			"/>
			<polygon class="st2" points="281,192 223.2,242.3 197.8,110.3 			"/>
			<polygon class="st2" points="223.2,242.3 184.9,294.3 120.9,374.8 132.8,172.2 			"/>
			<polygon class="st1" points="184.9,294.3 203.5,393.3 120.9,374.8 			"/>
			<polygon class="st3" points="197.8,17.7 197.8,110.3 132.8,172.2 			"/>
			<polygon class="st2" points="120.9,374.8 143.3,485.9 16.4,401.4 			"/>
			<polygon class="st2" points="108.2,17.7 132.8,172.2 54.8,86.5 			"/>
			<polygon class="st3" points="62.1,314.4 120.9,374.8 16.4,401.4 			"/>
		</g>
		<g>
		</g>
	</g>
</g>
</svg>
